<svg width="31" height="30" viewBox="0 0 31 30" fill="none" xmlns="http://www.w3.org/2000/svg">
<path d="M8.28418 23.75V13.75C8.28418 13.0596 8.84896 12.5 9.54565 12.5H22.1603C22.857 12.5 23.4218 13.0596 23.4218 13.75V23.75C23.4218 24.4404 22.857 25 22.1603 25H9.54565C8.84896 25 8.28418 24.4404 8.28418 23.75Z" stroke="#68655C" stroke-width="2" stroke-linejoin="round"/>
<path d="M15.853 21.25C17.2464 21.25 18.3759 20.1307 18.3759 18.75C18.3759 17.3693 17.2464 16.25 15.853 16.25C14.4596 16.25 13.3301 17.3693 13.3301 18.75C13.3301 20.1307 14.4596 21.25 15.853 21.25Z" stroke="#68655C" stroke-width="2" stroke-linejoin="round"/>
<path d="M10.8076 12.5V10C10.8076 7.23858 13.0667 5 15.8535 5C18.6402 5 20.8994 7.23858 20.8994 10V12.5H10.8076Z" stroke="#68655C" stroke-width="2" stroke-linejoin="round"/>
</svg>
