<svg width="31" height="30" viewBox="0 0 31 30" fill="none" xmlns="http://www.w3.org/2000/svg">
<mask id="mask0_96_141" style="mask-type:luminance" maskUnits="userSpaceOnUse" x="0" y="0" width="31" height="30">
<path d="M30.9911 0H0.71582V30H30.9911V0Z" fill="white"/>
</mask>
<g mask="url(#mask0_96_141)">
<g filter="url(#filter0_d_96_141)">
<path d="M18.8005 15.4332L18.4725 14.8994C18.2602 15.0275 18.1437 15.2671 18.1748 15.5115C18.2059 15.7557 18.3788 15.9592 18.6166 16.0311L18.8005 15.4332ZM12.9055 15.4332L13.0895 16.0311C13.3272 15.9592 13.5002 15.7557 13.5314 15.5115C13.5624 15.2671 13.4458 15.0275 13.2335 14.8994L12.9055 15.4332ZM20.899 10.625C20.899 12.435 19.9288 14.021 18.4725 14.8994L19.1285 15.9671C20.945 14.8714 22.1604 12.8891 22.1604 10.625H20.899ZM15.8531 5.625C18.6398 5.625 20.899 7.86357 20.899 10.625H22.1604C22.1604 7.17322 19.3365 4.375 15.8531 4.375V5.625ZM10.8072 10.625C10.8072 7.86357 13.0663 5.625 15.8531 5.625V4.375C12.3696 4.375 9.5457 7.17322 9.5457 10.625H10.8072ZM13.2335 14.8994C11.7773 14.021 10.8072 12.435 10.8072 10.625H9.5457C9.5457 12.8891 10.7611 14.8714 12.5776 15.9671L13.2335 14.8994ZM12.7216 14.8354C8.73945 16.0386 5.7406 19.4755 5.21316 23.6753L6.46496 23.8296C6.92994 20.1272 9.57578 17.0927 13.0895 16.0311L12.7216 14.8354ZM5.21316 23.6753C5.07375 24.7853 6.00171 25.625 7.02276 25.625V24.375C6.65044 24.375 6.43229 24.0899 6.46496 23.8296L5.21316 23.6753ZM7.02276 25.625H24.6834V24.375H7.02276V25.625ZM24.6834 25.625C25.7044 25.625 26.6323 24.7853 26.4929 23.6753L25.2411 23.8296C25.2737 24.0899 25.0556 24.375 24.6834 24.375V25.625ZM26.4929 23.6753C25.9655 19.4755 22.9666 16.0386 18.9844 14.8354L18.6166 16.0311C22.1303 17.0927 24.7761 20.1272 25.2411 23.8296L26.4929 23.6753Z" fill="#68655C"/>
</g>
</g>
<defs>
<filter id="filter0_d_96_141" x="-28.1341" y="4.375" width="87.9743" height="87.9167" filterUnits="userSpaceOnUse" color-interpolation-filters="sRGB">
<feFlood flood-opacity="0" result="BackgroundImageFix"/>
<feColorMatrix in="SourceAlpha" type="matrix" values="0 0 0 0 0 0 0 0 0 0 0 0 0 0 0 0 0 0 127 0" result="hardAlpha"/>
<feOffset dy="33.3333"/>
<feGaussianBlur stdDeviation="16.6667"/>
<feColorMatrix type="matrix" values="0 0 0 0 0 0 0 0 0 0 0 0 0 0 0 0 0 0 0.1 0"/>
<feBlend mode="normal" in2="BackgroundImageFix" result="effect1_dropShadow_96_141"/>
<feBlend mode="normal" in="SourceGraphic" in2="effect1_dropShadow_96_141" result="shape"/>
</filter>
</defs>
</svg>
